<?xml version="1.0" standalone="no"?>
<!DOCTYPE svg PUBLIC "-//W3C//DTD SVG 20010904//EN"
 "http://www.w3.org/TR/2001/REC-SVG-20010904/DTD/svg10.dtd">
<svg version="1.0" xmlns="http://www.w3.org/2000/svg"
 width="260.000000pt" height="260.000000pt" viewBox="0 0 260.000000 260.000000"
 preserveAspectRatio="xMidYMid meet">
<metadata>
Created by potrace 1.11, written by Peter Selinger 2001-2013
</metadata>
<g transform="translate(0.000000,260.000000) scale(0.100000,-0.100000)"
fill="#000000" stroke="none">
<path d="M0 1300 l0 -1300 1300 0 1300 0 0 1300 0 1300 -1300 0 -1300 0 0
-1300z m1431 912 c123 -34 211 -102 289 -220 59 -91 66 -137 25 -178 -22 -22
-33 -25 -83 -23 -31 1 -65 6 -75 11 -9 5 -38 40 -63 78 -50 77 -142 166 -191
187 -68 28 -189 9 -211 -34 -24 -47 -13 -669 17 -918 32 -265 71 -395 139
-467 30 -32 86 -39 96 -12 7 18 14 157 21 442 l5 202 -23 11 c-30 14 -67 69
-67 102 0 17 8 32 23 41 21 14 333 69 452 80 73 7 124 -9 144 -46 20 -35 3
-73 -43 -94 -41 -20 -46 -39 -46 -174 0 -237 -85 -480 -217 -621 -176 -189
-537 -163 -737 52 -70 75 -99 128 -141 251 -56 168 -70 265 -70 498 0 199 1
209 34 345 45 185 60 216 151 305 103 102 147 130 259 167 116 38 212 43 312
15z"/>
</g>
</svg>
